<svg xmlns="http://www.w3.org/2000/svg" width="1120" height="560" viewBox="0 0 1120 560" role="img" aria-labelledby="title desc">
  <title id="title">Braid agent activation</title>
  <desc id="desc">braid agent-init configures Claude, Codex, Cursor, and Copilot without indexing, LLM calls, or memory promotion.</desc>
  <defs>
    <marker id="arrow" viewBox="0 0 10 10" refX="8" refY="5" markerWidth="8" markerHeight="8" orient="auto">
      <path d="M 0 0 L 10 5 L 0 10 z" fill="#374151"/>
    </marker>
    <style>
      .label { font: 700 26px ui-sans-serif, system-ui, -apple-system, BlinkMacSystemFont, "Segoe UI", sans-serif; fill: #111827; }
      .body { font: 18px ui-sans-serif, system-ui, -apple-system, BlinkMacSystemFont, "Segoe UI", sans-serif; fill: #1f2937; }
      .mono { font: 16px ui-monospace, SFMono-Regular, Menlo, Consolas, monospace; fill: #111827; }
      .small { font: 15px ui-sans-serif, system-ui, -apple-system, BlinkMacSystemFont, "Segoe UI", sans-serif; fill: #4b5563; }
      .card { rx: 18; ry: 18; stroke-width: 2.5; }
    </style>
  </defs>

  <rect width="1120" height="560" fill="#ffffff"/>
  <text x="56" y="58" class="label">One command activates Braid across supported agents</text>
  <text x="56" y="90" class="body">It checks, fixes, or removes managed config only. It does not index, call an LLM, or promote memory.</text>

  <rect x="392" y="130" width="336" height="104" class="card" fill="#dbeafe" stroke="#1d4ed8"/>
  <text x="430" y="170" class="label" fill="#1e3a8a">braid agent-init</text>
  <text x="430" y="204" class="mono">--check | --fix | --remove | --json</text>

  <path d="M 510 234 L 180 318" fill="none" stroke="#374151" stroke-width="2.5" marker-end="url(#arrow)"/>
  <path d="M 542 234 L 410 318" fill="none" stroke="#374151" stroke-width="2.5" marker-end="url(#arrow)"/>
  <path d="M 578 234 L 710 318" fill="none" stroke="#374151" stroke-width="2.5" marker-end="url(#arrow)"/>
  <path d="M 612 234 L 940 318" fill="none" stroke="#374151" stroke-width="2.5" marker-end="url(#arrow)"/>

  <rect x="72" y="318" width="216" height="136" class="card" fill="#ffedd5" stroke="#7c2d12"/>
  <text x="108" y="358" class="label" fill="#7c2d12">Claude</text>
  <text x="108" y="392" class="mono">.claude/settings.json</text>
  <text x="108" y="424" class="small">SessionStart hook</text>
  <text x="108" y="448" class="small">MCP server: braid</text>

  <rect x="324" y="318" width="216" height="136" class="card" fill="#ccfbf1" stroke="#0f766e"/>
  <text x="360" y="358" class="label" fill="#134e4a">Codex</text>
  <text x="360" y="392" class="mono">.codex/hooks.json</text>
  <text x="360" y="424" class="small">Session hook command</text>
  <text x="360" y="448" class="small">braid claude-session-start</text>

  <rect x="580" y="318" width="216" height="136" class="card" fill="#ede9fe" stroke="#4c1d95"/>
  <text x="616" y="358" class="label" fill="#4c1d95">Cursor</text>
  <text x="616" y="392" class="mono">.cursor/rules/main.mdc</text>
  <text x="616" y="424" class="small">Symlink to AGENTS.md</text>
  <text x="616" y="448" class="small">Root discovery stays root</text>

  <rect x="832" y="318" width="216" height="136" class="card" fill="#fef3c7" stroke="#854d0e"/>
  <text x="868" y="358" class="label" fill="#713f12">Copilot</text>
  <text x="868" y="392" class="mono">.github/copilot-...</text>
  <text x="868" y="424" class="small">Symlink to AGENTS.md</text>
  <text x="868" y="448" class="small">Preserves other config</text>

  <rect x="300" y="496" width="520" height="42" rx="21" fill="#f3f4f6" stroke="#9ca3af"/>
  <text x="356" y="524" class="body">Managed blocks only; unrelated hooks and settings are preserved.</text>
</svg>
